<?xml version="1.0" encoding="utf-8"?>
<!-- Generator: Adobe Illustrator 26.0.0, SVG Export Plug-In . SVG Version: 6.00 Build 0)  -->
<svg version="1.1" id="Capa_1" xmlns="http://www.w3.org/2000/svg" xmlns:xlink="http://www.w3.org/1999/xlink" x="0px" y="0px"
	 viewBox="0 0 400 400" style="enable-background:new 0 0 400 400;" xml:space="preserve">
<g>
	<path d="M264,61c-7.9,15.3-11.9,31.2-11.9,47.8c0,5.4,0.4,10.9,1.3,16.4l4,26.6L282,182l-15.7,30.3l3.5,71.7
		c3.7,24.7,12.6,47.4,26.8,67.9h-37.6c-12.3,0-23-4.2-32-12.6c-9.1-8.4-14.1-18.8-15.1-31.1h-22.6c-1,12.3-6.1,22.7-15.3,31.1
		c-9.1,8.4-19.9,12.6-32.3,12.6h-38.3c14-20.6,22.6-43.2,25.8-67.8l3.2-71.8L116.5,182l24.1-30.3l3.5-26.4c0.6-4.9,0.9-9.8,0.9-14.6
		c0-17.3-4.2-33.9-12.6-49.8H264z M210.4,265.3c-3.2-59.7-6.4-109.8-9.7-150.2c-6.4,46.5-10.5,96.6-12.1,150.2H210.4z"/>
</g>
</svg>
